#!OML:ASF X:\für Bonn\!DataBase\2005_08_10_Bjorn_Final\c3d\bjorn.ASF
:FULLY-SPECIFIED
:DEGREES
62
root -20.9735 19.4473 -0.354421 -320.682 -88.8563 -34.7583
lowerback -12.4716 4.59518 -4.81383
upperback 4.66503 7.54191 -6.18294
thorax 12.4237 3.412 -2.38984
lowerneck -2.2317 -6.53883 6.4221
upperneck 11.048 -9.31456 0.121946
head 3.69401 -4.40051 -1.40559
rclavicle -1.51076e-014 5.56597e-014
rhumerus 45.3648 2.88935 -52.4182
rradius 53.8827
rwrist -16.5666
rhand -4.0799 2.04128
rfingers 7.12502
rthumb 21.6772 -26.7652
lclavicle -1.51076e-014 5.56597e-014
lhumerus -20.944 6.19042 79.0356
lradius 17.2618
lwrist -38.5467
lhand -18.9339 -1.57979
lfingers 7.12502
lthumb 7.36895 28.2719
rfemur -11.7229 -13.0178 16.8962
rtibia 24.7678
rfoot -9.21399 20.6084
rtoes 2.94459
lfemur -12.8081 16.871 -16.5288
ltibia 24.9369
lfoot -7.62578 -16.8829
ltoes 3.54402
63
root -20.9746 19.4468 -0.35888 -320.093 -88.8478 -35.3545
lowerback -12.4837 4.63694 -4.93142
upperback 4.65225 7.62164 -6.25255
thorax 12.4145 3.44212 -2.38361
lowerneck -2.2405 -6.58676 6.39958
upperneck 11.2871 -9.40496 0.228586
head 3.78451 -4.43649 -1.37844
rclavicle 2.70347e-014 2.22639e-014
rhumerus 45.8935 3.29792 -50.7824
rradius 52.6833
rwrist -17.6589
rhand -3.15542 1.09783
rfingers 7.12502
rthumb 22.5648 -27.6035
lclavicle 2.70347e-014 2.22639e-014
lhumerus -20.9614 6.39726 78.9745
lradius 17.227
lwrist -38.4815
lhand -18.9999 -1.72076
lfingers 7.12502
lthumb 7.30523 28.1331
rfemur -11.7225 -13.045 16.9214
rtibia 24.7884
rfoot -9.21103 20.6523
rtoes 2.99094
lfemur -12.7905 16.8607 -16.493
ltibia 24.9341
lfoot -7.63076 -16.8556
ltoes 3.56476
64
root -20.9753 19.4468 -0.363498 -319.224 -88.8248 -36.2324
lowerback -12.4836 4.67783 -5.02917
upperback 4.64298 7.69627 -6.32488
thorax 12.4048 3.4717 -2.39333
lowerneck -2.27024 -6.63371 6.39144
upperneck 11.5382 -9.49811 0.336409
head 3.88327 -4.47254 -1.35487
rclavicle -2.70347e-014 1.43125e-014
rhumerus 46.3094 3.64879 -49.3283
rradius 51.7033
rwrist -18.616
rhand -2.15608 0.228487
rfingers 7.12502
rthumb 23.5237 -28.3531
lclavicle -2.70347e-014 1.43125e-014
lhumerus -20.9526 6.5995 78.8961
lradius 17.1719
lwrist -38.4116
lhand -19.0511 -1.87246
lfingers 7.12502
lthumb 7.25581 27.9831
rfemur -11.7191 -13.0864 16.9655
rtibia 24.807
rfoot -9.22108 20.687
rtoes 2.89291
lfemur -12.7696 16.8819 -16.4431
ltibia 24.9339
lfoot -7.66791 -16.8601
ltoes 3.37443
65
root -20.9763 19.4465 -0.367593 -319.175 -88.8254 -36.2811
lowerback -12.4909 4.71106 -5.15748
upperback 4.62487 7.76517 -6.39644
thorax 12.385 3.49616 -2.38639
lowerneck -2.26078 -6.66905 6.38849
upperneck 11.7583 -9.57021 0.427987
head 3.96346 -4.49973 -1.33387
rclavicle 1.63003e-014 -3.97569e-014
rhumerus 46.6254 3.97433 -48.015
rradius 50.9224
rwrist -19.4564
rhand -1.15369 -0.529482
rfingers 7.12502
rthumb 24.4849 -28.9844
lclavicle 1.63003e-014 -3.97569e-014
lhumerus -20.9855 6.86986 78.8098
lradius 17.1507
lwrist -38.393
lhand -19.0587 -1.9675
lfingers 7.12502
lthumb 7.24847 27.8884
rfemur -11.732 -13.1326 16.9757
rtibia 24.8268
rfoot -9.18644 20.7469
rtoes 2.95799
lfemur -12.761 16.9405 -16.4267
ltibia 24.9317
lfoot -7.65032 -16.9113
ltoes 3.42173
66
root -20.977 19.4462 -0.371692 -318.833 -88.8106 -36.6148
lowerback -12.5078 4.74691 -5.26574
upperback 4.60882 7.83564 -6.46817
thorax 12.376 3.52279 -2.38961
lowerneck -2.28186 -6.70995 6.4415
upperneck 12.0096 -9.652 0.469072
head 4.05559 -4.53031 -1.34147
rclavicle -2.06736e-014 1.27222e-014
rhumerus 46.8576 4.26531 -46.8132
rradius 50.2652
rwrist -20.0014
rhand -0.281451 -1.09311
rfingers 7.12502
rthumb 25.3208 -29.4323
lclavicle -2.06736e-014 1.27222e-014
lhumerus -21.0087 7.15863 78.7129
lradius 17.1201
lwrist -38.4634
lhand -19.0428 -2.08081
lfingers 7.12502
lthumb 7.26383 27.7745
rfemur -11.7476 -13.1585 17.0042
rtibia 24.8463
rfoot -9.17023 20.7787
rtoes 3.00674
lfemur -12.7591 16.8881 -16.3963
ltibia 24.9293
lfoot -7.67716 -16.8559
ltoes 3.34375
